<svg xmlns="http://www.w3.org/2000/svg" xmlns:xlink="http://www.w3.org/1999/xlink" width="300" height="200"><defs><path id="a" d="M0 0h300v200H0z"/></defs><clipPath id="b"><use xlink:href="#a" overflow="visible"/></clipPath><g clip-path="url(#b)"><defs><path id="c" d="M-142.257-167.571h585.308v442.259h-585.308z"/></defs><clipPath id="d"><use xlink:href="#c" overflow="visible"/></clipPath><path clip-path="url(#d)" fill="#333" d="M-142.257-167.571h585.308v442.259h-585.308z"/><g clip-path="url(#d)"><defs><path id="e" d="M40.022-123.478h402.933v291.621H40.022z"/></defs><clipPath id="f"><use xlink:href="#e" overflow="visible"/></clipPath><g clip-path="url(#f)"><defs><path id="g" d="M40.022-123.478h402.933v291.621H40.022z"/></defs><clipPath id="h"><use xlink:href="#g" overflow="visible"/></clipPath><g clip-path="url(#h)"><path fill="#FFF" d="M124.729 152.02v-2.196h2.666v2.196h-2.666zm2.666 1.501v9.707h-2.666v-9.707h2.666z"/></g><g clip-path="url(#h)"><path fill="#FFF" d="M132.033 153.521v1.353h.057c.338-.563.776-.974 1.314-1.23s1.089-.385 1.652-.385c.713 0 1.298.098 1.755.291.457.194.817.463 1.08.808.263.345.447.764.554 1.258.106.494.159 1.042.159 1.643v5.971h-2.666v-5.482c0-.801-.125-1.398-.375-1.793s-.694-.592-1.333-.592c-.726 0-1.251.217-1.577.648s-.488 1.142-.488 2.131v5.088h-2.666v-9.707h2.534z"/></g><g clip-path="url(#h)"><path fill="#FFF" d="M143.298 149.823v5.051h.057c.338-.563.77-.974 1.295-1.23.526-.256 1.039-.385 1.54-.385.713 0 1.298.098 1.755.291.457.194.817.463 1.08.808.263.345.447.764.554 1.258.106.494.159 1.042.159 1.643v5.971h-2.666v-5.482c0-.801-.125-1.398-.375-1.793s-.694-.592-1.333-.592c-.726 0-1.251.217-1.577.648s-.488 1.142-.488 2.131v5.088h-2.666v-13.405h2.665z"/></g><g clip-path="url(#h)"><path fill="#FFF" d="M151.654 156.507c.037-.626.193-1.146.469-1.559s.626-.744 1.052-.995c.426-.25.904-.428 1.437-.534s1.066-.16 1.605-.16c.488 0 .982.035 1.483.104.5.068.957.203 1.37.403s.751.479 1.014.836c.263.356.395.829.395 1.417v5.051c0 .438.024.857.075 1.258.05.401.138.701.263.901h-2.704c-.05-.15-.091-.304-.121-.46-.032-.156-.054-.316-.066-.479-.426.438-.926.744-1.502.92-.576.175-1.164.263-1.765.263-.463 0-.896-.057-1.296-.169s-.751-.288-1.051-.525c-.301-.238-.535-.538-.704-.901s-.254-.795-.254-1.296c0-.551.097-1.004.291-1.361.194-.356.444-.641.751-.854s.657-.373 1.052-.479c.395-.105.791-.19 1.192-.253.4-.062.795-.113 1.183-.15.388-.038.732-.094 1.032-.169.301-.075.538-.185.714-.329.175-.144.256-.354.244-.629 0-.287-.047-.516-.141-.685s-.22-.301-.376-.395-.338-.156-.544-.188c-.207-.031-.43-.047-.667-.047-.525 0-.938.112-1.239.338-.3.225-.476.601-.525 1.126h-2.667zm6.158 1.972c-.112.101-.254.179-.423.234-.169.057-.351.104-.544.141-.194.038-.397.069-.61.095-.213.024-.426.056-.639.094-.2.037-.397.087-.591.149-.194.063-.363.147-.507.254-.145.106-.261.241-.348.403-.088.163-.132.37-.132.62 0 .237.044.438.132.601.087.163.206.291.356.385s.325.16.525.197.407.057.62.057c.525 0 .933-.088 1.221-.263.287-.176.5-.386.638-.63.138-.243.223-.49.254-.741.031-.25.047-.45.047-.601v-.995z"/></g><g clip-path="url(#h)"><path fill="#FFF" d="M165.284 149.823v13.405h-2.666v-13.405h2.666z"/></g><g clip-path="url(#h)"><path fill="#FFF" d="M170.241 160.9c.4.388.976.582 1.727.582.538 0 1.002-.135 1.39-.403.388-.27.626-.555.714-.854h2.347c-.376 1.164-.951 1.996-1.728 2.497s-1.715.751-2.816.751c-.764 0-1.452-.122-2.065-.366s-1.133-.592-1.558-1.042c-.426-.45-.755-.988-.986-1.614s-.347-1.314-.347-2.065c0-.726.118-1.402.356-2.028.237-.625.575-1.167 1.014-1.624.438-.456.961-.816 1.567-1.079.607-.263 1.28-.395 2.019-.395.826 0 1.546.16 2.159.479.613.319 1.117.748 1.512 1.286.395.539.679 1.152.854 1.84.175.689.237 1.408.188 2.159h-7.003c.036.863.255 1.489.656 1.876zm3.013-5.106c-.319-.351-.804-.526-1.455-.526-.426 0-.779.072-1.061.216-.281.145-.507.323-.676.535-.169.213-.288.438-.356.676-.069.238-.11.451-.122.639h4.337c-.126-.677-.348-1.189-.667-1.54z"/></g><g clip-path="url(#h)"><defs><path id="i" d="M40.022-123.478h221.289V97.811H40.022z"/></defs><clipPath id="j"><use xlink:href="#i" overflow="visible"/></clipPath><g clip-path="url(#j)"><defs><path id="k" d="M40.022-123.478h221.289V97.811H40.022z"/></defs><clipPath id="l"><use xlink:href="#k" overflow="visible"/></clipPath><g clip-path="url(#l)"><defs><path id="m" d="M40.13-123.464h221.129V97.665H40.13z"/></defs><clipPath id="n"><use xlink:href="#m" overflow="visible"/></clipPath><path clip-path="url(#n)" fill="#87CEEB" d="M261.26-12.9c0 1.809-.044 3.618-.133 5.425-.089 1.807-.222 3.611-.399 5.412-.177 1.801-.399 3.596-.664 5.386s-.575 3.572-.928 5.347c-.353 1.775-.749 3.54-1.189 5.295-.44 1.755-.922 3.499-1.447 5.23-.525 1.732-1.093 3.449-1.702 5.153s-1.261 3.391-1.953 5.063c-.692 1.672-1.426 3.325-2.199 4.961-.774 1.636-1.587 3.252-2.44 4.847-.853 1.596-1.745 3.17-2.675 4.722-.93 1.552-1.898 3.08-2.903 4.585-1.005 1.505-2.047 2.983-3.125 4.437-1.078 1.453-2.191 2.879-3.339 4.278-1.148 1.399-2.329 2.768-3.545 4.109-1.215 1.341-2.463 2.651-3.742 3.93-1.279 1.279-2.59 2.527-3.93 3.742-1.341 1.215-2.71 2.397-4.109 3.545-1.399 1.148-2.825 2.261-4.278 3.339-1.453 1.078-2.932 2.12-4.437 3.125-1.505 1.005-3.033 1.973-4.585 2.903-1.552.93-3.126 1.822-4.722 2.675-1.596.853-3.212 1.666-4.847 2.44-1.636.774-3.29 1.507-4.961 2.199-1.672.692-3.359 1.343-5.063 1.953-1.704.61-3.421 1.177-5.153 1.702-1.732.525-3.475 1.008-5.23 1.447-1.755.44-3.52.836-5.295 1.189-1.775.353-3.557.662-5.347.928-1.79.266-3.585.487-5.386.664-1.801.177-3.605.31-5.412.399-1.807.089-3.616.133-5.425.133-1.809 0-3.618-.044-5.425-.133-1.807-.089-3.611-.222-5.412-.399-1.801-.177-3.596-.399-5.386-.664s-3.572-.575-5.347-.928c-1.775-.353-3.54-.749-5.295-1.189-1.755-.44-3.499-.922-5.23-1.447s-3.449-1.093-5.153-1.702c-1.704-.61-3.391-1.261-5.063-1.953-1.672-.692-3.325-1.426-4.961-2.199-1.636-.774-3.252-1.587-4.847-2.44-1.596-.853-3.17-1.745-4.722-2.675-1.552-.93-3.08-1.898-4.585-2.903-1.505-1.005-2.983-2.047-4.437-3.125-1.453-1.078-2.879-2.191-4.278-3.339-1.399-1.148-2.768-2.329-4.109-3.545-1.341-1.215-2.651-2.463-3.93-3.742-1.279-1.28-2.527-2.59-3.742-3.93-1.215-1.341-2.397-2.71-3.545-4.109-1.148-1.399-2.261-2.825-3.339-4.278-1.078-1.453-2.119-2.932-3.125-4.437-1.005-1.505-1.973-3.033-2.903-4.585-.93-1.552-1.822-3.126-2.675-4.722-.853-1.596-1.666-3.212-2.44-4.847-.774-1.636-1.507-3.29-2.199-4.961-.692-1.672-1.343-3.359-1.953-5.063s-1.177-3.421-1.702-5.153c-.525-1.732-1.008-3.475-1.447-5.23s-.836-3.52-1.189-5.295c-.353-1.775-.662-3.557-.928-5.347-.266-1.79-.487-3.585-.664-5.386-.177-1.801-.31-3.605-.399-5.412-.092-1.807-.137-3.615-.137-5.425s.044-3.618.133-5.425c.089-1.807.222-3.611.399-5.412.177-1.801.399-3.596.664-5.386.266-1.79.575-3.572.928-5.347.353-1.775.749-3.54 1.189-5.295.44-1.755.922-3.499 1.447-5.23.525-1.732 1.093-3.449 1.702-5.153s1.261-3.391 1.953-5.063c.692-1.672 1.426-3.325 2.199-4.961.774-1.636 1.587-3.252 2.44-4.847.853-1.596 1.745-3.17 2.675-4.722.93-1.552 1.898-3.08 2.903-4.585 1.005-1.505 2.047-2.983 3.125-4.437 1.078-1.453 2.191-2.879 3.339-4.278 1.148-1.399 2.329-2.768 3.545-4.109 1.215-1.341 2.462-2.651 3.742-3.93 1.28-1.279 2.59-2.527 3.93-3.742 1.341-1.215 2.71-2.397 4.109-3.545 1.399-1.148 2.825-2.261 4.278-3.339s2.932-2.119 4.437-3.125c1.505-1.005 3.033-1.973 4.585-2.903 1.552-.93 3.126-1.822 4.722-2.675s3.212-1.666 4.847-2.44c1.636-.774 3.289-1.507 4.961-2.199 1.672-.692 3.359-1.343 5.063-1.953 1.704-.61 3.421-1.177 5.153-1.702 1.732-.525 3.475-1.008 5.23-1.447 1.755-.44 3.52-.836 5.295-1.189 1.775-.353 3.557-.662 5.347-.928 1.79-.266 3.585-.487 5.386-.664 1.801-.177 3.605-.31 5.412-.399 1.807-.089 3.616-.133 5.425-.133 1.809 0 3.618.044 5.425.133 1.807.089 3.611.222 5.412.399 1.801.177 3.596.399 5.386.664s3.572.575 5.347.928c1.775.353 3.54.749 5.295 1.189 1.755.44 3.499.922 5.23 1.447 1.732.525 3.449 1.093 5.153 1.702 1.704.61 3.391 1.261 5.063 1.953 1.672.692 3.325 1.426 4.961 2.199 1.636.774 3.252 1.587 4.847 2.44 1.596.853 3.17 1.745 4.722 2.675 1.552.93 3.08 1.898 4.585 2.903 1.505 1.005 2.983 2.047 4.437 3.125 1.453 1.078 2.879 2.191 4.278 3.339 1.399 1.148 2.768 2.329 4.109 3.545 1.341 1.215 2.651 2.463 3.93 3.742s2.527 2.59 3.742 3.93c1.215 1.341 2.397 2.71 3.545 4.109 1.148 1.399 2.261 2.825 3.339 4.278s2.12 2.932 3.125 4.437c1.005 1.505 1.973 3.033 2.903 4.585.93 1.552 1.822 3.126 2.675 4.722.853 1.596 1.666 3.212 2.44 4.847.774 1.636 1.507 3.29 2.199 4.961.692 1.672 1.343 3.359 1.953 5.063.61 1.704 1.177 3.421 1.702 5.153.525 1.732 1.008 3.475 1.447 5.23.44 1.755.836 3.52 1.189 5.295.353 1.775.662 3.557.928 5.347.266 1.79.487 3.585.664 5.386.177 1.801.31 3.605.399 5.412.092 1.807.137 3.616.137 5.425z"/></g></g></g></g></g></g></svg>