<svg xmlns="http://www.w3.org/2000/svg" xmlns:xlink="http://www.w3.org/1999/xlink" width="300" height="200"><defs><path id="a" d="M0 0h300v200H0z"/></defs><clipPath id="b"><use xlink:href="#a" overflow="visible"/></clipPath><g clip-path="url(#b)"><defs><path id="c" d="M-131.992-56.552h563.985v426.054h-563.985z"/></defs><clipPath id="d"><use xlink:href="#c" overflow="visible"/></clipPath><path clip-path="url(#d)" fill="#111" d="M-131.992-56.552h564.176v426.187h-564.176z"/><path clip-path="url(#d)" fill="#111" d="M-131.992-56.552h564.176v426.187h-564.176z"/></g><g clip-path="url(#b)"><defs><path id="e" d="M-131.992-56.552h563.985v426.054h-563.985z"/></defs><clipPath id="f"><use xlink:href="#e" overflow="visible"/></clipPath><g clip-path="url(#f)" fill="#FFF"><path d="M130.835 54.801h7.51v1.327h-6.043v3.287h5.313v1.29h-5.313v4.923h-1.467V54.801zM145.457 58.522c.698.677 1.046 1.674 1.046 2.989 0 1.271-.307 2.322-.922 3.151s-1.568 1.245-2.861 1.245c-1.078 0-1.935-.367-2.568-1.101-.634-.734-.952-1.719-.952-2.956 0-1.326.334-2.381 1.003-3.166.668-.786 1.566-1.178 2.693-1.178 1.009 0 1.863.339 2.561 1.016zm-.824 5.246c.323-.665.485-1.405.485-2.219 0-.736-.117-1.335-.35-1.796-.369-.727-1.005-1.09-1.909-1.09-.801 0-1.384.31-1.749.928s-.546 1.364-.546 2.238c0 .839.182 1.538.546 2.098.364.559.942.839 1.734.839.869-.001 1.466-.334 1.789-.998zM153.346 58.154c.557.433.893 1.177 1.006 2.233h-1.289c-.08-.486-.26-.89-.539-1.212-.279-.321-.729-.482-1.348-.482-.846 0-1.45.412-1.813 1.236-.236.535-.354 1.195-.354 1.98 0 .79.167 1.455.501 1.995.334.54.859.81 1.576.81.551 0 .986-.168 1.309-.503.322-.335.545-.794.668-1.376h1.289c-.148 1.046-.516 1.812-1.105 2.295s-1.344.726-2.262.726c-1.033 0-1.855-.377-2.47-1.131-.614-.754-.921-1.696-.921-2.826 0-1.385.337-2.464 1.01-3.235.673-.771 1.53-1.157 2.573-1.157.887-.001 1.61.215 2.169.647zM157.004 57.734v5.24c0 .403.062.732.188.987.229.472.657.708 1.284.708.899 0 1.512-.413 1.838-1.238.177-.442.265-1.049.265-1.82v-3.876h1.327v7.893h-1.253l.015-1.165c-.169.3-.379.553-.63.759-.496.413-1.099.619-1.808.619-1.104 0-1.855-.376-2.256-1.127-.217-.403-.325-.941-.325-1.614v-5.365h1.355zM164.86 63.151c.04.442.152.781.338 1.017.341.427.933.641 1.775.641.501 0 .942-.107 1.323-.321.382-.213.572-.544.572-.991 0-.339-.152-.597-.457-.773-.195-.108-.579-.233-1.153-.376l-1.071-.266c-.684-.167-1.188-.354-1.513-.56-.579-.358-.869-.854-.869-1.488 0-.747.273-1.351.818-1.813s1.278-.693 2.199-.693c1.205 0 2.074.349 2.606 1.046.334.442.495.919.485 1.43h-1.253c-.024-.298-.133-.569-.324-.813-.312-.347-.853-.52-1.622-.52-.513 0-.901.095-1.165.286s-.396.443-.396.756c0 .343.174.617.521.822.2.123.496.23.887.324l.894.214c.971.231 1.621.455 1.952.67.516.339.773.872.773 1.599 0 .703-.27 1.31-.81 1.82-.54.511-1.361.767-2.466.767-1.188 0-2.03-.267-2.525-.8-.495-.533-.76-1.192-.795-1.979h1.276z"/></g><g clip-path="url(#f)" fill="#FFF"><path d="M114.39 91.785c.653-1.346 1.928-2.569 3.825-3.67l2.83-1.636c1.268-.737 2.157-1.367 2.667-1.888.806-.817 1.208-1.752 1.208-2.806 0-1.231-.368-2.208-1.105-2.932-.737-.724-1.719-1.085-2.948-1.085-1.818 0-3.075.69-3.773 2.069-.374.739-.58 1.764-.619 3.075h-2.697c.03-1.837.369-3.336 1.017-4.496 1.15-2.043 3.179-3.065 6.087-3.065 2.417 0 4.183.653 5.298 1.96 1.115 1.307 1.673 2.761 1.673 4.363 0 1.69-.595 3.135-1.783 4.333-.688.698-1.921 1.542-3.7 2.535l-2.019 1.12c-.963.53-1.72 1.037-2.27 1.518-.982.855-1.602 1.803-1.857 2.845h11.526v2.505h-14.488c.099-1.817.474-3.399 1.128-4.745zM131.178 91.785c.653-1.346 1.928-2.569 3.825-3.67l2.83-1.636c1.268-.737 2.157-1.367 2.667-1.888.806-.817 1.208-1.752 1.208-2.806 0-1.231-.368-2.208-1.105-2.932-.737-.724-1.719-1.085-2.948-1.085-1.818 0-3.075.69-3.773 2.069-.374.739-.58 1.764-.619 3.075h-2.697c.03-1.837.369-3.336 1.017-4.496 1.15-2.043 3.179-3.065 6.087-3.065 2.417 0 4.183.653 5.298 1.96 1.115 1.307 1.673 2.761 1.673 4.363 0 1.69-.595 3.135-1.783 4.333-.688.698-1.921 1.542-3.7 2.535l-2.019 1.12c-.963.53-1.72 1.037-2.27 1.518-.982.855-1.602 1.803-1.857 2.845h11.526v2.505H130.05c.098-1.817.474-3.399 1.128-4.745zM149.24 80.952h3.08v3.213h-3.08v-3.213zm0 12.366h3.08v3.213h-3.08v-3.213zM156.353 91.785c.653-1.346 1.928-2.569 3.824-3.67l2.83-1.636c1.268-.737 2.156-1.367 2.668-1.888.805-.817 1.208-1.752 1.208-2.806 0-1.231-.368-2.208-1.105-2.932-.736-.724-1.72-1.085-2.947-1.085-1.818 0-3.076.69-3.773 2.069-.373.739-.58 1.764-.619 3.075h-2.697c.029-1.837.368-3.336 1.018-4.496 1.149-2.043 3.178-3.065 6.087-3.065 2.417 0 4.184.653 5.299 1.96 1.114 1.307 1.673 2.761 1.673 4.363 0 1.69-.595 3.135-1.784 4.333-.688.698-1.921 1.542-3.699 2.535l-2.02 1.12c-.963.53-1.719 1.037-2.27 1.518-.982.855-1.602 1.803-1.856 2.845h11.525v2.505h-14.488c.095-1.817.471-3.399 1.126-4.745zM173.14 91.785c.653-1.346 1.928-2.569 3.824-3.67l2.83-1.636c1.268-.737 2.156-1.367 2.668-1.888.805-.817 1.208-1.752 1.208-2.806 0-1.231-.368-2.208-1.105-2.932-.736-.724-1.72-1.085-2.947-1.085-1.818 0-3.076.69-3.773 2.069-.373.739-.58 1.764-.619 3.075h-2.697c.029-1.837.368-3.336 1.018-4.496 1.149-2.043 3.178-3.065 6.087-3.065 2.417 0 4.184.653 5.299 1.96 1.114 1.307 1.673 2.761 1.673 4.363 0 1.69-.595 3.135-1.784 4.333-.688.698-1.921 1.542-3.699 2.535l-2.02 1.12c-.963.53-1.719 1.037-2.27 1.518-.982.855-1.602 1.803-1.856 2.845H186.5v2.505h-14.488c.097-1.817.473-3.399 1.128-4.745z"/></g></g><g clip-path="url(#b)"><defs><path id="g" d="M-116.9-26.366h533.991v253.7H-116.9z"/></defs><clipPath id="h"><use xlink:href="#g" overflow="visible"/></clipPath><path opacity=".2471" clip-path="url(#h)" fill="#87CEEB" d="M150.096-20.024c27.579 0 52.256 8.455 74.029 25.366l-7.793 10.015C196.851.226 174.772-7.339 150.096-7.339v-12.685z"/><path opacity=".2471" clip-path="url(#h)" fill="none" stroke="#87CEEB" stroke-width="16.5616" d="M150.096-13.682c1.87 0 3.739.046 5.607.138 1.868.092 3.732.229 5.593.412 1.861.183 3.717.412 5.566.686 1.85.274 3.692.594 5.526.958 1.834.365 3.658.774 5.472 1.228s3.616.952 5.406 1.494c1.79.542 3.565 1.128 5.326 1.758 1.761.629 3.505 1.302 5.233 2.017 1.728.715 3.437 1.472 5.128 2.271s3.361 1.639 5.01 2.519 3.276 1.801 4.88 2.762c1.604.961 3.184 1.96 4.739 2.998 1.555 1.038 3.084 2.114 4.586 3.227 1.502 1.113 2.976 2.262 4.422 3.447 1.446 1.185 2.861 2.405 4.247 3.66 1.386 1.255 2.74 2.543 4.062 3.864 1.322 1.321 2.612 2.674 3.867 4.058 1.256 1.384 2.477 2.799 3.663 4.243 1.186 1.444 2.337 2.917 3.451 4.418 1.114 1.501 2.191 3.028 3.23 4.581 1.039 1.553 2.039 3.132 3.001 4.734.961 1.603 1.883 3.228 2.764 4.876.882 1.648 1.722 3.316 2.522 5.005.8 1.689 1.557 3.397 2.273 5.123.716 1.726 1.389 3.469 2.019 5.228.63 1.759 1.216 3.533 1.759 5.321.543 1.788 1.042 3.588 1.496 5.401.454 1.812.864 3.635 1.229 5.467.365 1.832.685 3.673.959 5.521.274 1.848.503 3.702.686 5.561.183 1.859.321 3.722.413 5.588.092 1.866.138 3.733.138 5.602s-.046 3.736-.138 5.602-.229 3.729-.413 5.588c-.183 1.859-.412 3.713-.686 5.561-.274 1.848-.594 3.688-.959 5.521-.365 1.833-.774 3.655-1.229 5.467-.454 1.812-.953 3.613-1.496 5.4-.543 1.788-1.129 3.562-1.759 5.321-.63 1.759-1.303 3.502-2.019 5.228-.716 1.726-1.473 3.434-2.273 5.123s-1.64 3.357-2.522 5.005c-.882 1.648-1.803 3.273-2.764 4.876-.961 1.603-1.962 3.181-3.001 4.734-1.039 1.554-2.116 3.081-3.23 4.581a113.0964 113.0964 0 0 1-3.451 4.417c-1.186 1.444-2.408 2.859-3.663 4.243-1.256 1.384-2.545 2.737-3.867 4.058-1.322 1.321-2.676 2.609-4.062 3.864-1.386 1.255-2.801 2.475-4.247 3.66-1.446 1.185-2.92 2.334-4.422 3.447-1.502 1.113-3.031 2.189-4.586 3.227-1.555 1.038-3.134 2.037-4.739 2.998-1.604.961-3.231 1.881-4.88 2.762s-3.319 1.721-5.01 2.519c-1.691.799-3.4 1.556-5.128 2.271-1.728.715-3.472 1.387-5.233 2.017-1.761.629-3.536 1.215-5.326 1.758-1.79.542-3.591 1.041-5.406 1.495-1.814.454-3.638.863-5.472 1.228-1.834.365-3.676.684-5.526.958-1.85.274-3.705.503-5.566.686s-3.726.321-5.593.412a113.96723 113.96723 0 0 1-11.214 0c-1.868-.092-3.732-.229-5.594-.412s-3.717-.412-5.567-.686c-1.85-.274-3.692-.593-5.526-.958-1.834-.365-3.658-.774-5.472-1.228-1.814-.454-3.616-.952-5.406-1.495-1.79-.542-3.565-1.128-5.326-1.758-1.761-.629-3.505-1.302-5.233-2.017-1.728-.715-3.437-1.472-5.128-2.271-1.691-.799-3.361-1.639-5.01-2.519-1.649-.881-3.276-1.801-4.88-2.762-1.604-.961-3.184-1.96-4.739-2.998-1.555-1.038-3.083-2.114-4.586-3.227-1.502-1.113-2.976-2.262-4.422-3.447-1.446-1.185-2.861-2.405-4.247-3.66-1.386-1.255-2.74-2.543-4.062-3.864-1.322-1.321-2.612-2.674-3.867-4.058-1.256-1.384-2.477-2.799-3.663-4.243s-2.337-2.917-3.451-4.417c-1.114-1.501-2.191-3.028-3.23-4.581-1.039-1.553-2.039-3.132-3.001-4.734-.961-1.603-1.883-3.228-2.765-4.876-.882-1.648-1.722-3.316-2.522-5.005-.8-1.689-1.557-3.397-2.273-5.123-.716-1.726-1.389-3.469-2.019-5.228-.63-1.759-1.216-3.533-1.759-5.321-.543-1.788-1.042-3.588-1.496-5.4-.454-1.812-.864-3.635-1.229-5.467-.365-1.833-.684-3.673-.959-5.521-.274-1.848-.503-3.702-.687-5.561-.183-1.859-.321-3.722-.413-5.588-.092-1.866-.138-3.733-.138-5.602s.046-3.736.138-5.602c.092-1.866.229-3.729.413-5.588s.412-3.713.687-5.561c.274-1.848.594-3.689.959-5.521.365-1.832.774-3.655 1.229-5.467.454-1.812.953-3.613 1.496-5.401.543-1.788 1.129-3.561 1.759-5.321.63-1.759 1.303-3.502 2.019-5.228.716-1.726 1.473-3.434 2.273-5.123s1.64-3.357 2.522-5.005 1.803-3.273 2.765-4.876c.961-1.603 1.962-3.181 3.001-4.734s2.116-3.081 3.23-4.581c1.114-1.501 2.264-2.973 3.451-4.417s2.408-2.859 3.663-4.243c1.256-1.384 2.545-2.737 3.867-4.058s2.676-2.609 4.062-3.864c1.386-1.255 2.801-2.475 4.247-3.66 1.446-1.185 2.919-2.334 4.422-3.447 1.502-1.113 3.031-2.189 4.586-3.227 1.555-1.038 3.134-2.037 4.739-2.998 1.604-.961 3.231-1.881 4.88-2.762s3.319-1.721 5.01-2.519c1.691-.799 3.4-1.556 5.128-2.271 1.728-.715 3.472-1.387 5.233-2.017 1.761-.629 3.536-1.215 5.326-1.758 1.79-.542 3.591-1.041 5.406-1.494 1.814-.454 3.638-.863 5.472-1.228 1.834-.365 3.676-.684 5.526-.958 1.85-.274 3.705-.503 5.567-.686 1.861-.183 3.726-.321 5.593-.412 1.869-.093 3.738-.138 5.608-.139z"/></g><g clip-path="url(#b)"><defs><path id="i" d="M87.929 116.654h25.873v25.873H87.929z"/></defs><clipPath id="j"><use xlink:href="#i" overflow="visible"/></clipPath><path clip-path="url(#j)" fill="#FFF" d="M92.78 140.304v-21.426c0-.334.273-.606.606-.606h2.426c.334 0 .606.273.606.606v8.914l9.879-9.147c1.041-.864 2.653-.142 2.653 1.243v19.405c0 1.385-1.612 2.107-2.653 1.243l-9.879-9.091v8.859c0 .333-.273.606-.606.606h-2.426c-.333 0-.606-.273-.606-.606z"/></g><g clip-path="url(#b)"><defs><path id="k" d="M132.488 111.623h35.935v35.935h-35.935z"/></defs><clipPath id="l"><use xlink:href="#k" overflow="visible"/></clipPath><path clip-path="url(#l)" fill="#FFF" d="M164.52 126.692l-24.705-14.606c-2.007-1.186-5.081-.035-5.081 2.899v29.204c0 2.632 2.857 4.218 5.081 2.899l24.705-14.599c2.204-1.298 2.211-4.499 0-5.797z"/></g></svg>