<svg xmlns="http://www.w3.org/2000/svg" xmlns:xlink="http://www.w3.org/1999/xlink" width="300" height="200"><defs><path id="a" d="M0 0h300v200H0z"/></defs><clipPath id="b"><use xlink:href="#a" overflow="visible"/></clipPath><g clip-path="url(#b)"><path fill="#121C21" d="M0 0h380.361v657.164H0z"/><path fill="#646464" d="M380.252 657.055H.109V.108h380.143v656.947zm-379.393-.75h378.643V.859H.859v655.446z" opacity=".251"/></g><g clip-path="url(#b)"><defs><path id="c" d="M0 0h380.361v657.164H0z"/></defs><clipPath id="d"><use xlink:href="#c" overflow="visible"/></clipPath><g clip-path="url(#d)"><path fill="#FFF" d="M29.257 28.561l5.091 14.969h.061l4.817-14.969h6.737v21.768h-4.481V34.902h-.061l-5.335 15.426h-3.689l-5.335-15.274h-.061v15.274H22.52V28.561h6.737z"/></g><g clip-path="url(#d)"><path fill="#FFF" d="M49.805 39.033c.386-1.026.935-1.9 1.646-2.622.711-.721 1.564-1.28 2.561-1.677.996-.396 2.114-.594 3.354-.594s2.363.198 3.369.594c1.006.396 1.864.956 2.576 1.677.711.722 1.26 1.596 1.646 2.622.386 1.026.58 2.17.58 3.43 0 1.261-.194 2.398-.58 3.415-.386 1.017-.935 1.886-1.646 2.607-.712.722-1.57 1.275-2.576 1.661-1.006.386-2.129.58-3.369.58s-2.358-.193-3.354-.58c-.996-.386-1.85-.939-2.561-1.661-.712-.721-1.261-1.59-1.646-2.607-.386-1.016-.579-2.154-.579-3.415 0-1.26.193-2.404.579-3.43zm3.933 5.274c.122.6.33 1.138.625 1.616.294.478.686.859 1.174 1.143.488.285 1.098.427 1.829.427.732 0 1.346-.142 1.845-.427.498-.284.894-.666 1.189-1.143.294-.478.503-1.016.625-1.616s.183-1.214.183-1.845c0-.63-.061-1.25-.183-1.86-.122-.609-.331-1.148-.625-1.616-.295-.467-.691-.848-1.189-1.143-.499-.294-1.113-.442-1.845-.442-.731 0-1.341.147-1.829.442-.488.295-.879.676-1.174 1.143-.295.468-.503 1.006-.625 1.616-.122.61-.183 1.23-.183 1.86 0 .631.061 1.246.183 1.845z"/></g><g clip-path="url(#d)"><path fill="#FFF" d="M72.457 34.566v2.195h.091c.549-.915 1.26-1.58 2.134-1.997.874-.417 1.768-.625 2.683-.625 1.159 0 2.108.158 2.851.473.742.315 1.326.752 1.753 1.311.427.56.727 1.24.899 2.043.172.803.259 1.692.259 2.667v9.695h-4.329v-8.902c0-1.3-.204-2.271-.61-2.911-.407-.641-1.128-.96-2.165-.96-1.179 0-2.033.351-2.561 1.052-.529.701-.792 1.855-.792 3.46v8.262h-4.329V34.566h4.116z"/></g><g clip-path="url(#d)"><path fill="#FFF" d="M97.609 48.316c-.508.854-1.174 1.469-1.997 1.845-.823.375-1.753.564-2.79.564-1.179 0-2.215-.229-3.109-.686-.895-.458-1.631-1.077-2.21-1.86-.579-.782-1.017-1.682-1.311-2.698-.295-1.016-.442-2.073-.442-3.17 0-1.057.147-2.078.442-3.064.294-.985.732-1.854 1.311-2.606s1.306-1.357 2.18-1.814c.874-.458 1.891-.686 3.049-.686.935 0 1.824.198 2.667.594.843.396 1.509.981 1.997 1.753h.061v-7.926h4.329V50.33H97.67v-2.012h-.061zm-.183-7.79c-.122-.599-.331-1.128-.625-1.585-.295-.458-.676-.828-1.144-1.113-.468-.285-1.057-.427-1.768-.427-.712 0-1.311.142-1.799.427s-.879.661-1.174 1.128c-.295.468-.508 1.001-.64 1.601-.132.6-.198 1.225-.198 1.875 0 .609.071 1.219.213 1.829.142.61.371 1.154.686 1.631.315.478.711.864 1.189 1.159.478.295 1.052.442 1.723.442.711 0 1.306-.142 1.783-.427.478-.284.858-.666 1.144-1.143.284-.478.488-1.021.609-1.631.122-.609.183-1.239.183-1.89.001-.651-.06-1.276-.182-1.876z"/></g><g clip-path="url(#d)"><path fill="#FFF" d="M104.865 39.414c.061-1.016.315-1.859.762-2.53.447-.67 1.016-1.209 1.707-1.616.691-.406 1.468-.696 2.333-.869.864-.173 1.732-.259 2.606-.259.793 0 1.595.056 2.409.167.812.112 1.555.331 2.226.656.67.325 1.219.777 1.646 1.356s.641 1.347.641 2.302v8.201c0 .711.04 1.392.122 2.042.081.651.224 1.139.427 1.463h-4.39a6.3134 6.3134 0 0 1-.198-.747 6.399 6.399 0 0 1-.107-.777c-.691.712-1.504 1.209-2.439 1.494-.935.284-1.89.427-2.866.427-.752 0-1.454-.092-2.104-.274-.651-.183-1.22-.467-1.708-.854s-.869-.874-1.143-1.463-.412-1.291-.412-2.104c0-.894.157-1.631.473-2.21.315-.58.721-1.042 1.219-1.387s1.067-.604 1.708-.777 1.285-.31 1.936-.412c.65-.102 1.29-.183 1.92-.244.63-.061 1.189-.152 1.677-.274s.874-.299 1.159-.533c.284-.233.416-.574.396-1.021 0-.467-.076-.838-.229-1.113s-.356-.488-.61-.64c-.254-.152-.548-.254-.884-.305-.335-.05-.697-.076-1.083-.076-.854 0-1.524.183-2.012.549s-.772.976-.854 1.829h-4.328zm9.999 3.201c-.183.163-.411.29-.686.381s-.569.167-.884.229c-.315.061-.646.112-.991.152-.346.041-.691.092-1.037.152-.325.061-.646.143-.96.244-.315.102-.59.239-.823.412-.234.173-.422.392-.564.655-.143.265-.213.6-.213 1.006 0 .386.071.711.213.976.142.264.335.472.579.625.244.152.528.259.854.32.325.061.66.092 1.006.092.854 0 1.514-.142 1.982-.427.467-.284.812-.625 1.036-1.021.224-.396.361-.797.412-1.204s.076-.732.076-.976v-1.616z"/></g><g clip-path="url(#d)"><path fill="#FFF" d="M128.371 55.023c-.833.549-1.992.823-3.476.823-.447 0-.889-.015-1.326-.046-.437-.03-.879-.066-1.326-.106v-3.567c.406.041.823.081 1.25.122.427.04.854.05 1.281.03.568-.061.991-.285 1.265-.671s.412-.813.412-1.28c0-.345-.061-.671-.183-.976l-5.518-14.786h4.604l3.567 10.792h.061l3.445-10.792h4.482l-6.585 17.713c-.47 1.281-1.12 2.195-1.953 2.744z"/></g><g clip-path="url(#d)"><path fill="#FFF" d="M29.166 80.092c-.143.475-.38.898-.711 1.271-.333.373-.772.67-1.321.894s-1.229.335-2.042.335c-1.355 0-2.398-.355-3.13-1.067-.731-.711-1.097-1.758-1.097-3.14v-.895h1.931v.61c0 .42.034.806.102 1.159.068.352.186.657.356.915.169.257.406.457.711.6.305.142.694.213 1.168.213.881 0 1.487-.237 1.819-.711s.498-1.111.498-1.911v-10.61h1.931v10.894c-.002.488-.073.969-.215 1.443z"/></g><g clip-path="url(#d)"><path fill="#FFF" d="M39.337 82.267V80.6h-.041c-.366.65-.833 1.128-1.402 1.433-.569.305-1.24.458-2.012.458-.691 0-1.267-.091-1.728-.274-.461-.183-.833-.444-1.118-.783-.285-.338-.485-.742-.6-1.209-.115-.468-.173-.986-.173-1.555v-6.91h1.728v7.114c0 .65.189 1.166.569 1.544.379.379.901.569 1.565.569.528 0 .986-.082 1.372-.244.386-.163.708-.393.966-.691.257-.298.45-.647.579-1.047.128-.399.193-.836.193-1.311v-5.935h1.728v10.508h-1.626z"/></g><g clip-path="url(#d)"><path fill="#FFF" d="M45.191 71.759v1.667h.041c.718-1.273 1.856-1.911 3.415-1.911.691 0 1.267.095 1.728.285.46.19.833.454 1.118.793.284.339.484.742.6 1.209.115.468.172.986.172 1.555v6.91h-1.728v-7.114c0-.65-.19-1.165-.569-1.544-.379-.379-.901-.569-1.565-.569-.529 0-.986.082-1.372.244s-.708.393-.965.691c-.258.298-.451.647-.579 1.047-.129.4-.193.837-.193 1.311v5.935h-1.728V71.759h1.625z"/></g><g clip-path="url(#d)"><path fill="#FFF" d="M62.304 81.596c-.786.597-1.775.895-2.968.895-.84 0-1.568-.136-2.185-.407-.617-.271-1.135-.65-1.555-1.138s-.735-1.07-.945-1.748c-.21-.678-.329-1.416-.356-2.215 0-.799.122-1.531.366-2.195.244-.664.586-1.24 1.026-1.728.44-.488.962-.867 1.565-1.138.603-.271 1.263-.407 1.981-.407.935 0 1.71.193 2.327.58s1.111.877 1.484 1.474c.373.596.63 1.247.772 1.951.142.705.2 1.375.173 2.012h-7.866c-.014.461.041.898.163 1.311.122.414.318.779.589 1.098.271.318.616.573 1.037.762.42.19.915.285 1.483.285.732 0 1.332-.169 1.799-.508.468-.338.775-.854.925-1.544h1.708c-.229 1.176-.737 2.064-1.523 2.66zm-.417-6.748c-.156-.366-.366-.681-.63-.945s-.576-.474-.935-.63-.755-.234-1.189-.234c-.447 0-.851.078-1.209.234-.359.156-.668.369-.925.64-.258.271-.461.586-.61.945-.149.359-.237.742-.264 1.148h6.036c-.027-.406-.118-.792-.274-1.158z"/></g><g clip-path="url(#d)"><path fill="#FFF" d="M75.616 82.267V71.942h-3.74V70.56c.488 0 .962-.037 1.423-.112.46-.074.877-.213 1.25-.417.373-.203.688-.481.945-.833s.433-.799.528-1.341h1.321v14.41h-1.727z"/></g><g clip-path="url(#d)"><path fill="#FFF" d="M89.702 72.145c-.637.989-1.203 2.046-1.697 3.17a23.2065 23.2065 0 0 0-1.209 3.476c-.312 1.192-.501 2.351-.569 3.476h-1.931c.081-1.219.281-2.409.6-3.567.318-1.159.728-2.27 1.229-3.333a21.0844 21.0844 0 0 1 1.738-3.018c.657-.948 1.365-1.822 2.124-2.622h-7.561V68.1h9.329v1.484c-.732.718-1.417 1.572-2.053 2.561z"/></g><g clip-path="url(#d)"><path fill="#FFF" d="M96.644 80.011v2.053c0 .772-.176 1.436-.528 1.992-.353.556-.921.948-1.708 1.179v-1.016c.23-.082.423-.2.58-.355.155-.156.281-.325.376-.508.095-.183.159-.369.193-.559s.044-.366.031-.528h-1.199v-2.256h2.255z"/></g><g clip-path="url(#d)"><path fill="#FFF" d="M105.116 70.925c.19-.623.484-1.162.884-1.616.399-.454.897-.81 1.494-1.067s1.274-.386 2.033-.386c.623 0 1.209.091 1.758.274.548.183 1.026.447 1.433.792.407.346.728.776.965 1.291.237.515.356 1.111.356 1.789 0 .637-.099 1.199-.295 1.687s-.457.925-.782 1.311-.698.735-1.118 1.047-.854.61-1.301.894c-.447.271-.894.539-1.341.803-.447.265-.857.546-1.229.844-.373.298-.691.62-.956.965s-.437.742-.518 1.189h7.398v1.524h-9.41c.068-.854.22-1.582.458-2.185.237-.603.539-1.128.904-1.575.366-.447.779-.84 1.24-1.179.46-.338.941-.657 1.443-.955.61-.379 1.145-.729 1.606-1.047.46-.318.843-.64 1.148-.965.305-.325.535-.677.691-1.057.155-.379.233-.819.233-1.321 0-.393-.074-.749-.223-1.067-.149-.318-.349-.593-.6-.823-.251-.23-.546-.407-.884-.529-.339-.122-.698-.183-1.077-.183-.501 0-.932.105-1.291.315-.359.21-.654.485-.884.823-.23.339-.396.722-.498 1.148s-.146.857-.132 1.291h-1.728c-.041-.731.033-1.408.223-2.032z"/></g><g clip-path="url(#d)"><path fill="#FFF" d="M116.192 73.547c.027-.569.095-1.125.204-1.667.108-.542.264-1.057.467-1.545s.481-.915.833-1.28c.352-.366.796-.657 1.331-.874s1.175-.325 1.921-.325c.745 0 1.385.108 1.92.325s.979.508 1.332.874c.352.366.63.792.833 1.28.204.488.359 1.003.468 1.545.108.542.176 1.097.203 1.667.027.569.041 1.118.041 1.646 0 .528-.014 1.077-.041 1.646a11.25 11.25 0 0 1-.203 1.667c-.109.542-.264 1.054-.468 1.535-.203.481-.481.904-.833 1.271-.353.366-.793.654-1.321.864s-1.172.315-1.931.315c-.746 0-1.386-.105-1.921-.315s-.979-.498-1.331-.864c-.353-.366-.63-.79-.833-1.271s-.359-.992-.467-1.535c-.109-.542-.176-1.097-.204-1.667a34.788 34.788 0 0 1-.041-1.646c0-.528.014-1.077.041-1.646zm1.84 3.445c.033.671.142 1.301.325 1.89.183.59.478 1.087.884 1.494.407.406.976.61 1.708.61.731 0 1.301-.204 1.707-.61.407-.407.701-.904.884-1.494.183-.589.291-1.219.325-1.89.034-.67.051-1.277.051-1.819 0-.352-.003-.742-.01-1.169-.007-.427-.041-.854-.102-1.28s-.149-.843-.264-1.25c-.115-.406-.285-.762-.508-1.067s-.505-.552-.843-.742c-.339-.19-.752-.285-1.24-.285s-.901.095-1.24.285c-.339.19-.62.437-.844.742s-.393.661-.508 1.067c-.116.407-.204.823-.265 1.25-.061.427-.095.854-.102 1.28-.007.427-.01.817-.01 1.169 0 .542.018 1.149.052 1.819z"/></g><g clip-path="url(#d)"><path fill="#FFF" d="M132.106 82.267V71.942h-3.74V70.56c.488 0 .962-.037 1.423-.112.46-.074.877-.213 1.25-.417.373-.203.688-.481.945-.833s.433-.799.528-1.341h1.321v14.41h-1.727z"/></g><g clip-path="url(#d)"><path fill="#FFF" d="M141.476 80.417c.501.379 1.098.569 1.789.569 1.057 0 1.85-.458 2.378-1.372s.82-2.313.874-4.197l-.041-.041c-.325.61-.786 1.094-1.382 1.453-.596.359-1.247.539-1.951.539-.731 0-1.382-.118-1.951-.355-.569-.237-1.046-.565-1.433-.986-.386-.42-.678-.928-.874-1.524-.197-.596-.295-1.246-.295-1.951 0-.691.115-1.324.346-1.9.23-.576.555-1.07.976-1.483.42-.413.921-.735 1.504-.965s1.22-.346 1.911-.346c.677 0 1.314.105 1.911.315.596.21 1.118.573 1.565 1.087.447.515.803 1.216 1.067 2.104.264.888.396 2.016.396 3.384 0 2.493-.396 4.407-1.189 5.742-.793 1.334-2.063 2.002-3.811 2.002-1.206 0-2.208-.305-3.008-.915-.799-.61-1.253-1.538-1.361-2.785h1.728c.064.704.349 1.246.851 1.625zm4.542-9.004c-.129-.393-.318-.742-.569-1.046-.251-.305-.559-.545-.925-.722-.366-.176-.793-.264-1.281-.264-.515 0-.952.095-1.311.285-.359.19-.65.444-.874.762s-.386.681-.488 1.087c-.102.407-.153.833-.153 1.281 0 .393.071.772.214 1.138.142.366.338.691.589.976.25.285.549.512.894.681.346.17.729.254 1.148.254.447 0 .854-.084 1.219-.254.366-.169.678-.399.935-.691.257-.291.454-.63.589-1.016s.204-.789.204-1.209c.002-.449-.062-.869-.191-1.262z"/></g><g clip-path="url(#d)"><path fill="#B4B4B4" d="M70.041 122.087v1.544h.041c.786-1.191 1.917-1.788 3.395-1.788.65 0 1.24.136 1.768.406.528.271.901.731 1.118 1.382.353-.568.816-1.009 1.393-1.32.576-.312 1.209-.468 1.9-.468.528 0 1.006.058 1.433.173s.792.295 1.098.538c.305.244.542.56.711.945.169.387.254.851.254 1.393v7.703h-1.728v-6.891c0-.325-.027-.63-.082-.914-.054-.285-.156-.532-.305-.742-.149-.21-.355-.376-.62-.498-.264-.122-.606-.183-1.026-.183-.854 0-1.524.244-2.012.731-.488.488-.732 1.139-.732 1.951v6.545h-1.728v-6.891c0-.338-.03-.65-.091-.935s-.167-.531-.315-.742c-.149-.21-.349-.372-.599-.487-.251-.115-.573-.173-.966-.173-.501 0-.932.102-1.291.305s-.65.447-.874.731c-.224.285-.386.579-.488.885-.102.305-.152.559-.152.762v6.545h-1.728v-10.508h1.626zM93.191 131.924c-.786.597-1.775.895-2.968.895-.84 0-1.568-.136-2.185-.407-.617-.271-1.135-.65-1.555-1.138-.42-.488-.735-1.07-.945-1.748-.21-.678-.329-1.416-.356-2.215 0-.8.122-1.531.366-2.195.244-.664.586-1.24 1.026-1.728.44-.488.962-.867 1.565-1.139.603-.271 1.263-.406 1.981-.406.935 0 1.71.193 2.327.579.617.387 1.111.878 1.484 1.474.373.597.63 1.247.772 1.951.142.705.2 1.375.173 2.012H87.01c-.014.461.041.898.163 1.312.122.413.318.779.589 1.098.271.318.616.572 1.037.762.42.19.915.285 1.483.285.732 0 1.332-.17 1.799-.509.468-.338.775-.854.925-1.544h1.708c-.23 1.177-.737 2.065-1.523 2.661zm-.417-6.748c-.156-.365-.366-.681-.63-.945-.264-.264-.576-.474-.935-.63-.359-.155-.755-.233-1.189-.233-.447 0-.851.078-1.209.233-.359.156-.668.369-.925.641-.258.271-.461.586-.61.945-.149.358-.237.741-.264 1.148h6.036c-.027-.407-.118-.793-.274-1.159zM104.329 132.595v-1.423h-.041c-.284.583-.731 1.003-1.341 1.26-.61.258-1.28.387-2.012.387-.813 0-1.521-.149-2.124-.447s-1.104-.698-1.504-1.199c-.4-.501-.701-1.084-.904-1.748s-.305-1.368-.305-2.113.098-1.45.295-2.114c.196-.664.495-1.243.895-1.737.399-.495.901-.888 1.504-1.18.603-.291 1.304-.437 2.104-.437.271 0 .562.027.874.081.312.055.623.146.935.274.312.129.606.299.884.508.278.211.511.472.701.783h.041v-5.406h1.728v14.512h-1.73zm-6.21-3.73c.129.467.325.884.589 1.25.264.365.603.657 1.017.874.413.217.897.325 1.453.325.583 0 1.077-.115 1.483-.346.407-.23.738-.532.996-.904.257-.373.444-.796.559-1.271.115-.475.172-.955.172-1.443 0-.515-.061-1.013-.183-1.494-.122-.48-.315-.904-.579-1.27-.265-.366-.607-.661-1.027-.885s-.928-.335-1.524-.335c-.583 0-1.078.115-1.484.346-.407.23-.732.535-.976.914-.244.38-.42.813-.528 1.301-.109.488-.163.989-.163 1.504.002.489.066.966.195 1.434zM108.82 120.196v-2.113h1.728v2.113h-1.728zm1.728 1.891v10.508h-1.728v-10.508h1.728zM117.722 122.087v1.524h-2.093v6.523c0 .204.017.366.051.488.034.122.098.217.193.284.095.068.227.112.396.133.169.02.389.03.661.03h.792v1.524h-1.321c-.447 0-.83-.03-1.148-.092-.319-.061-.576-.173-.772-.335-.197-.163-.342-.394-.437-.691s-.142-.691-.142-1.179v-6.687h-1.789v-1.524h1.789v-3.15h1.728v3.15h2.092zM128.941 132.554c-.298.176-.711.265-1.24.265-.447 0-.803-.126-1.067-.376-.264-.251-.396-.661-.396-1.229-.475.568-1.026.979-1.656 1.229-.63.25-1.311.376-2.043.376-.474 0-.925-.055-1.352-.163s-.796-.277-1.107-.508c-.312-.23-.559-.531-.742-.904-.183-.373-.274-.823-.274-1.352 0-.597.102-1.084.305-1.464.203-.379.471-.688.803-.925.332-.236.711-.416 1.138-.538s.864-.224 1.311-.305c.474-.095.925-.166 1.352-.214.427-.047.803-.115 1.128-.203s.583-.217.772-.387c.189-.169.285-.416.285-.741 0-.38-.071-.685-.213-.915-.143-.23-.325-.406-.549-.528s-.475-.203-.752-.244c-.278-.04-.552-.061-.823-.061-.732 0-1.342.139-1.83.417-.488.277-.752.803-.792 1.575h-1.728c.027-.65.163-1.199.406-1.646.244-.447.569-.81.976-1.088.407-.277.871-.478 1.393-.6.521-.122 1.08-.183 1.677-.183.474 0 .945.034 1.413.102.467.067.891.206 1.27.416.379.209.684.503.915.882s.346.872.346 1.48v5.395c0 .406.023.703.071.893.047.189.207.284.478.284.149 0 .325-.027.528-.081v1.341zm-2.804-5.386c-.217.162-.501.279-.854.354-.353.075-.722.136-1.108.183s-.776.101-1.168.162c-.393.061-.746.158-1.057.293s-.566.326-.762.576-.294.59-.294 1.021c0 .283.057.522.173.718.115.195.264.354.447.476.183.121.396.209.64.263.244.054.501.081.772.081.569 0 1.057-.078 1.463-.232.407-.155.738-.351.996-.587.257-.236.447-.492.569-.769.122-.276.183-.536.183-.778v-1.761zM135.04 122.087v1.524h-2.093v6.523c0 .204.017.366.051.488.034.122.098.217.193.284.095.068.227.112.396.133.169.02.389.03.661.03h.792v1.524h-1.321c-.447 0-.83-.03-1.148-.092-.319-.061-.576-.173-.772-.335-.197-.163-.342-.394-.437-.691s-.142-.691-.142-1.179v-6.687h-1.789v-1.524h1.789v-3.15h1.728v3.15h2.092zM144.389 131.924c-.786.597-1.775.895-2.968.895-.84 0-1.568-.136-2.185-.407-.617-.271-1.135-.65-1.555-1.138-.42-.488-.735-1.07-.945-1.748-.21-.678-.329-1.416-.356-2.215 0-.8.122-1.531.366-2.195.244-.664.586-1.24 1.026-1.728.44-.488.962-.867 1.565-1.139.603-.271 1.263-.406 1.981-.406.935 0 1.71.193 2.327.579.617.387 1.111.878 1.484 1.474.373.597.63 1.247.772 1.951.142.705.2 1.375.173 2.012h-7.866c-.014.461.041.898.163 1.312.122.413.318.779.589 1.098.271.318.616.572 1.037.762.42.19.915.285 1.483.285.732 0 1.332-.17 1.799-.509.468-.338.775-.854.925-1.544h1.708c-.229 1.177-.737 2.065-1.523 2.661zm-.417-6.748c-.156-.365-.366-.681-.63-.945-.264-.264-.576-.474-.935-.63-.359-.155-.755-.233-1.189-.233-.447 0-.851.078-1.209.233-.359.156-.668.369-.925.641-.258.271-.461.586-.61.945-.149.358-.237.741-.264 1.148h6.036c-.027-.407-.118-.793-.274-1.159z" opacity=".749"/></g><g opacity=".749" clip-path="url(#d)"><path fill="#B4B4B4" d="M67.114 125.819h79.439v1.936H67.114z"/></g><g clip-path="url(#d)"><path fill="#B4B4B4" d="M74.695 160.693c-.434-.366-1.016-.549-1.748-.549-.623 0-1.145.115-1.565.346s-.755.535-1.006.914c-.251.38-.43.816-.539 1.312-.109.494-.163 1.006-.163 1.534 0 .488.057.962.173 1.423.115.461.294.871.539 1.229.244.359.562.647.955.864s.86.325 1.402.325c.854 0 1.521-.224 2.002-.671s.775-1.077.884-1.891h1.768c-.19 1.301-.674 2.304-1.453 3.008-.779.705-1.839 1.058-3.181 1.058-.8 0-1.508-.129-2.124-.387-.617-.257-1.131-.623-1.545-1.098-.413-.474-.725-1.039-.935-1.696-.21-.657-.315-1.379-.315-2.165s.102-1.521.305-2.205.511-1.28.925-1.789c.413-.508.931-.907 1.555-1.199.623-.291 1.348-.437 2.175-.437.596 0 1.155.071 1.677.213.521.143.982.363 1.382.661.399.298.728.674.985 1.128s.42.993.488 1.616h-1.789c-.133-.663-.418-1.178-.852-1.544zM79.084 161.964c.217-.671.542-1.254.976-1.748.434-.495.969-.885 1.606-1.169.637-.284 1.368-.427 2.195-.427.84 0 1.575.143 2.206.427.63.284 1.162.674 1.595 1.169.434.494.759 1.077.976 1.748.217.67.325 1.392.325 2.164s-.108 1.491-.325 2.154c-.217.664-.542 1.243-.976 1.738-.434.494-.965.881-1.595 1.158-.63.277-1.365.417-2.206.417-.827 0-1.558-.14-2.195-.417-.637-.277-1.172-.664-1.606-1.158-.434-.495-.759-1.074-.976-1.738-.217-.663-.325-1.382-.325-2.154s.108-1.494.325-2.164zm1.758 3.861c.169.495.403.908.701 1.24.298.332.647.586 1.047.762.399.176.823.265 1.27.265.447 0 .871-.089 1.271-.265.399-.176.749-.43 1.047-.762.298-.332.531-.745.701-1.24.169-.494.254-1.061.254-1.697s-.085-1.202-.254-1.697c-.17-.494-.403-.911-.701-1.25-.298-.338-.647-.596-1.047-.772-.4-.176-.823-.264-1.271-.264-.447 0-.871.088-1.27.264-.4.177-.749.435-1.047.772-.298.339-.532.756-.701 1.25-.169.495-.254 1.061-.254 1.697s.085 1.203.254 1.697zM98.658 169.372v-1.423h-.041c-.284.583-.731 1.003-1.341 1.26-.61.258-1.28.387-2.012.387-.813 0-1.521-.149-2.124-.447s-1.104-.698-1.504-1.199c-.4-.501-.701-1.084-.904-1.748s-.305-1.368-.305-2.113.098-1.45.295-2.114c.196-.664.495-1.243.895-1.737.399-.495.901-.888 1.504-1.18.603-.291 1.304-.437 2.104-.437.271 0 .562.027.874.081.312.055.623.146.935.274.312.129.606.299.884.508.278.211.511.472.701.783h.041v-5.406h1.728v14.512h-1.73zm-6.21-3.729c.129.467.325.884.589 1.25.264.365.603.657 1.017.874.413.217.897.325 1.453.325.583 0 1.077-.115 1.483-.346.407-.23.738-.532.996-.904.257-.373.444-.796.559-1.271.115-.475.172-.955.172-1.443 0-.515-.061-1.013-.183-1.494-.122-.48-.315-.904-.579-1.27-.265-.366-.607-.661-1.027-.885s-.928-.335-1.524-.335c-.583 0-1.078.115-1.484.346-.407.23-.732.535-.976.914-.244.38-.42.813-.528 1.301-.109.488-.163.989-.163 1.504.002.488.066.966.195 1.434zM110.487 168.701c-.786.597-1.775.895-2.968.895-.84 0-1.568-.136-2.185-.407-.617-.271-1.135-.65-1.555-1.138-.42-.488-.735-1.07-.945-1.748-.21-.678-.329-1.416-.356-2.215 0-.8.122-1.531.366-2.195.244-.664.586-1.24 1.026-1.728.44-.488.962-.867 1.565-1.139.603-.271 1.263-.406 1.981-.406.935 0 1.71.193 2.327.579.617.387 1.111.878 1.484 1.474.373.597.63 1.247.772 1.951.142.705.2 1.375.173 2.012h-7.866c-.014.461.041.898.163 1.312.122.413.318.779.589 1.098.271.318.616.572 1.037.762.42.19.915.285 1.483.285.732 0 1.332-.17 1.799-.509.468-.338.775-.854.925-1.544h1.708c-.23 1.178-.738 2.065-1.523 2.661zm-.417-6.748c-.156-.365-.366-.681-.63-.945-.264-.264-.576-.474-.935-.63-.359-.155-.755-.233-1.189-.233-.447 0-.851.078-1.209.233-.359.156-.668.369-.925.641-.258.271-.461.586-.61.945-.149.358-.237.741-.264 1.148h6.036c-.027-.407-.118-.793-.274-1.159z" opacity=".749"/></g><g opacity=".749" clip-path="url(#d)"><path fill="#B4B4B4" d="M67.114 162.597h45.534v1.936H67.114z"/></g><g clip-path="url(#d)"><path fill="#B4B4B4" d="M76.301 208.148c-.786.854-2.019 1.281-3.699 1.281-.488 0-.986-.055-1.494-.163-.508-.108-.969-.284-1.382-.528a3.2102 3.2102 0 0 1-1.026-.955c-.271-.394-.42-.874-.447-1.443h1.728c.013.312.112.576.295.793.183.217.406.393.67.528s.552.233.864.295c.312.061.61.091.895.091.569 0 1.05-.099 1.443-.294.393-.197.718-.468.976-.813s.444-.762.559-1.25c.115-.487.173-1.022.173-1.605v-.691h-.041c-.298.65-.749 1.128-1.352 1.434-.603.305-1.243.457-1.92.457-.786 0-1.47-.143-2.053-.427-.583-.285-1.071-.667-1.463-1.148-.393-.48-.688-1.043-.884-1.688-.197-.643-.295-1.324-.295-2.042 0-.623.082-1.264.244-1.921s.434-1.253.813-1.789c.379-.534.881-.976 1.504-1.32.623-.346 1.389-.519 2.297-.519.664 0 1.273.146 1.829.437.556.292.989.729 1.301 1.312h.021v-1.504h1.626v9.613c-.003 1.719-.396 3.006-1.182 3.859zm-2.205-4.725c.399-.236.722-.548.965-.935.244-.386.423-.823.539-1.311.115-.488.173-.976.173-1.464 0-.46-.054-.914-.163-1.361s-.281-.851-.518-1.21c-.237-.358-.546-.646-.925-.863-.379-.217-.84-.325-1.382-.325-.556 0-1.03.105-1.422.314-.394.211-.715.492-.966.844-.25.353-.434.759-.548 1.22-.116.461-.173.941-.173 1.443 0 .474.047.948.142 1.423.095.474.257.904.488 1.29.23.387.535.698.915.935.379.237.854.356 1.423.356.567 0 1.052-.119 1.452-.356z" opacity=".749"/><g opacity=".749" fill="#B4B4B4"><path d="M84.207 206.584c-.203.515-.403.948-.6 1.301-.197.352-.414.64-.65.863-.237.224-.501.387-.792.488-.292.102-.627.152-1.006.152-.203 0-.406-.014-.61-.041a2.86 2.86 0 0 1-.589-.142v-1.586c.149.068.322.125.519.173.196.048.362.071.498.071.353 0 .647-.085.884-.254.237-.17.417-.41.539-.722l.711-1.769-4.167-10.446h1.951l3.069 8.597h.041l2.947-8.597h1.829l-4.574 11.912zM91.869 194.674v1.544h.041c.786-1.191 1.917-1.788 3.395-1.788.65 0 1.24.136 1.768.406.528.271.901.731 1.118 1.382.353-.568.816-1.009 1.393-1.32.576-.312 1.209-.468 1.9-.468.528 0 1.006.058 1.433.173s.792.295 1.098.538c.305.244.542.56.711.945.169.387.254.851.254 1.393v7.703h-1.728v-6.891c0-.325-.027-.63-.082-.914-.054-.285-.156-.532-.305-.742-.149-.21-.355-.376-.62-.498-.264-.122-.606-.183-1.026-.183-.854 0-1.524.244-2.012.731-.488.488-.732 1.139-.732 1.951v6.545h-1.728v-6.891c0-.338-.03-.65-.091-.935s-.167-.531-.315-.742c-.149-.21-.349-.372-.599-.487-.251-.115-.573-.173-.966-.173-.501 0-.932.102-1.291.305s-.65.447-.874.731c-.224.285-.386.579-.488.885-.102.305-.152.559-.152.762v6.545h-1.728v-10.508h1.626z"/></g></g><g opacity=".749" clip-path="url(#d)"><path fill="#B4B4B4" d="M67.114 198.407h39.152v1.936H67.114z"/></g></g><g clip-path="url(#b)"><defs><path id="e" d="M0-60.974h950.419v718.295H0z"/></defs><clipPath id="f"><use xlink:href="#e" overflow="visible"/></clipPath><g clip-path="url(#f)"><defs><path id="g" d="M0-60.974h950.419v718.138H0z"/></defs><clipPath id="h"><use xlink:href="#g" overflow="visible"/></clipPath><g clip-path="url(#h)"><defs><path id="i" d="M0 0h380.361v657.164H0z"/></defs><clipPath id="j"><use xlink:href="#i" overflow="visible"/></clipPath><g clip-path="url(#j)"><defs><path id="k" d="M28.215 125.424l14.309-17.052c.415-.494.869-.534 1.364-.119l9.638 8.088c.494.415.534.869.119 1.363l-14.309 17.052c-.415.494-.869.534-1.364.119l-9.638-8.087c-.494-.415-.534-.869-.119-1.364z"/></defs><clipPath id="l"><use xlink:href="#k" overflow="visible"/></clipPath><g clip-path="url(#l)"><defs><path id="m" d="M42.523 108.372l-13.064 15.57 8.897 7.465 13.687-16.311-8.155-6.843c-.495-.415-.95-.375-1.365.119zm11.744-.741H27.592v27.867h26.674v-27.867z"/></defs><clipPath id="n"><use xlink:href="#m" overflow="visible"/></clipPath><g clip-path="url(#n)"><defs><path id="o" d="M38.788 135.56l-.358-4.091-8.971-7.527-1.867 2.224"/></defs><clipPath id="p"><use xlink:href="#o" overflow="visible"/></clipPath><g clip-path="url(#p)"><defs><path id="q" transform="scale(-1) rotate(40.002 356.305 -93.5532)" d="M26.742 128.237h14.614v2.903H26.742z"/></defs><clipPath id="r"><use xlink:href="#q" overflow="visible"/></clipPath><g clip-path="url(#r)"><path fill="#0F1" d="M38.7164 135.502L27.5956 126.17l15.5532-18.5342 11.1207 9.3322z"/></g></g></g></g></g></g></g></g><g clip-path="url(#b)"><defs><path id="s" d="M0-60.974h950.419v718.295H0z"/></defs><clipPath id="t"><use xlink:href="#s" overflow="visible"/></clipPath><g clip-path="url(#t)"><defs><path id="u" d="M0-60.974h950.419v718.138H0z"/></defs><clipPath id="v"><use xlink:href="#u" overflow="visible"/></clipPath><g clip-path="url(#v)"><defs><path id="w" d="M0 0h380.361v657.164H0z"/></defs><clipPath id="x"><use xlink:href="#w" overflow="visible"/></clipPath><g clip-path="url(#x)"><defs><path id="y" d="M28.215 125.424l14.309-17.052c.415-.494.869-.534 1.364-.119l9.638 8.088c.494.415.534.869.119 1.363l-14.309 17.052c-.415.494-.869.534-1.364.119l-9.638-8.087c-.494-.415-.534-.869-.119-1.364z"/></defs><clipPath id="z"><use xlink:href="#y" overflow="visible"/></clipPath><g clip-path="url(#z)"><defs><path id="A" d="M42.523 108.372l-13.064 15.57 8.897 7.465 13.687-16.311-8.155-6.843c-.495-.415-.95-.375-1.365.119zm11.744-.741H27.592v27.867h26.674v-27.867z"/></defs><clipPath id="B"><use xlink:href="#A" overflow="visible"/></clipPath><g clip-path="url(#B)"><defs><path id="C" transform="scale(-1) rotate(40.002 344.137 -124.7632)" d="M43.957 113.113h2.904v24.293h-2.904z"/></defs><clipPath id="D"><use xlink:href="#C" overflow="visible"/></clipPath><g clip-path="url(#D)"><defs><path id="E" d="M54.267 116.962l-2.225-1.866-13.748 16.385.357 4.091"/></defs><clipPath id="F"><use xlink:href="#E" overflow="visible"/></clipPath><g clip-path="url(#F)"><path fill="#0F1" d="M38.7164 135.502L27.5956 126.17l15.5532-18.5342 11.1207 9.3322z"/></g></g></g></g></g></g></g></g><g clip-path="url(#b)"><defs><path id="G" d="M0-60.974h950.419v718.295H0z"/></defs><clipPath id="H"><use xlink:href="#G" overflow="visible"/></clipPath><g clip-path="url(#H)"><defs><path id="I" d="M0-60.974h950.419v718.138H0z"/></defs><clipPath id="J"><use xlink:href="#I" overflow="visible"/></clipPath><g clip-path="url(#J)"><defs><path id="K" d="M0 0h380.361v657.164H0z"/></defs><clipPath id="L"><use xlink:href="#K" overflow="visible"/></clipPath><g clip-path="url(#L)"><defs><path id="M" d="M28.215 161.235l14.309-17.052c.415-.494.869-.534 1.364-.119l9.638 8.088c.494.415.534.869.119 1.364l-14.309 17.052c-.415.494-.869.534-1.364.119l-9.638-8.087c-.494-.417-.534-.871-.119-1.365z"/></defs><clipPath id="N"><use xlink:href="#M" overflow="visible"/></clipPath><g clip-path="url(#N)"><defs><path id="O" d="M42.523 144.182l-13.064 15.57 8.897 7.465 13.687-16.311-8.155-6.843c-.495-.415-.95-.375-1.365.119zm11.744-.741H27.592v27.867h26.674v-27.867z"/></defs><clipPath id="P"><use xlink:href="#O" overflow="visible"/></clipPath><g clip-path="url(#P)"><defs><path id="Q" d="M38.788 171.37l-.358-4.091-8.971-7.527-1.867 2.224"/></defs><clipPath id="R"><use xlink:href="#Q" overflow="visible"/></clipPath><g clip-path="url(#R)"><defs><path id="S" transform="scale(-1) rotate(40.002 454.6902 -93.556)" d="M26.742 164.047h14.614v2.904H26.742z"/></defs><clipPath id="T"><use xlink:href="#S" overflow="visible"/></clipPath><g clip-path="url(#T)"><path fill="#0F1" d="M38.7164 171.3137l-11.1208-9.3322 15.5532-18.5341 11.1208 9.3321z"/></g></g></g></g></g></g></g></g><g clip-path="url(#b)"><defs><path id="U" d="M0-60.974h950.419v718.295H0z"/></defs><clipPath id="V"><use xlink:href="#U" overflow="visible"/></clipPath><g clip-path="url(#V)"><defs><path id="W" d="M0-60.974h950.419v718.138H0z"/></defs><clipPath id="X"><use xlink:href="#W" overflow="visible"/></clipPath><g clip-path="url(#X)"><defs><path id="Y" d="M0 0h380.361v657.164H0z"/></defs><clipPath id="Z"><use xlink:href="#Y" overflow="visible"/></clipPath><g clip-path="url(#Z)"><defs><path id="aa" d="M28.215 161.235l14.309-17.052c.415-.494.869-.534 1.364-.119l9.638 8.088c.494.415.534.869.119 1.364l-14.309 17.052c-.415.494-.869.534-1.364.119l-9.638-8.087c-.494-.417-.534-.871-.119-1.365z"/></defs><clipPath id="ab"><use xlink:href="#aa" overflow="visible"/></clipPath><g clip-path="url(#ab)"><defs><path id="ac" d="M42.523 144.182l-13.064 15.57 8.897 7.465 13.687-16.311-8.155-6.843c-.495-.415-.95-.375-1.365.119zm11.744-.741H27.592v27.867h26.674v-27.867z"/></defs><clipPath id="ad"><use xlink:href="#ac" overflow="visible"/></clipPath><g clip-path="url(#ad)"><defs><path id="ae" transform="scale(-1) rotate(40.002 442.522 -124.7676)" d="M43.957 148.923h2.904v24.293h-2.904z"/></defs><clipPath id="af"><use xlink:href="#ae" overflow="visible"/></clipPath><g clip-path="url(#af)"><defs><path id="ag" d="M54.267 152.772l-2.225-1.866-13.748 16.385.357 4.091"/></defs><clipPath id="ah"><use xlink:href="#ag" overflow="visible"/></clipPath><g clip-path="url(#ah)"><path fill="#0F1" d="M38.7164 171.3137l-11.1208-9.3322 15.5532-18.5341 11.1208 9.3321z"/></g></g></g></g></g></g></g></g><g clip-path="url(#b)"><defs><path id="ai" d="M0-60.974h950.419v718.295H0z"/></defs><clipPath id="aj"><use xlink:href="#ai" overflow="visible"/></clipPath><g clip-path="url(#aj)"><defs><path id="ak" d="M0-60.974h950.419v718.138H0z"/></defs><clipPath id="al"><use xlink:href="#ak" overflow="visible"/></clipPath><g clip-path="url(#al)"><defs><path id="am" d="M0 0h380.361v657.164H0z"/></defs><clipPath id="an"><use xlink:href="#am" overflow="visible"/></clipPath><g clip-path="url(#an)"><defs><path id="ao" d="M28.215 198.012l14.309-17.052c.415-.494.869-.534 1.364-.119l9.638 8.087c.494.415.534.869.119 1.364l-14.309 17.052c-.415.494-.869.534-1.364.119l-9.638-8.087c-.494-.415-.534-.869-.119-1.364z"/></defs><clipPath id="ap"><use xlink:href="#ao" overflow="visible"/></clipPath><g clip-path="url(#ap)"><defs><path id="aq" d="M42.523 180.96l-13.064 15.57 8.897 7.465 13.687-16.311-8.155-6.843c-.495-.415-.95-.375-1.365.119zm11.744-.741H27.592v27.867h26.674v-27.867z"/></defs><clipPath id="ar"><use xlink:href="#aq" overflow="visible"/></clipPath><g clip-path="url(#ar)"><defs><path id="as" d="M38.788 208.148l-.358-4.091-8.971-7.527-1.867 2.224"/></defs><clipPath id="at"><use xlink:href="#as" overflow="visible"/></clipPath><g clip-path="url(#at)"><defs><path id="au" transform="scale(-1) rotate(40.002 555.734 -93.558)" d="M26.742 200.825h14.614v2.904H26.742z"/></defs><clipPath id="av"><use xlink:href="#au" overflow="visible"/></clipPath><g clip-path="url(#av)"><path fill="#0F1" d="M38.717 208.0932L27.596 198.761l15.5532-18.534 11.1208 9.332z"/></g></g></g></g></g></g></g></g><g clip-path="url(#b)"><defs><path id="aw" d="M0-60.974h950.419v718.295H0z"/></defs><clipPath id="ax"><use xlink:href="#aw" overflow="visible"/></clipPath><g clip-path="url(#ax)"><defs><path id="ay" d="M0-60.974h950.419v718.138H0z"/></defs><clipPath id="az"><use xlink:href="#ay" overflow="visible"/></clipPath><g clip-path="url(#az)"><defs><path id="aA" d="M0 0h380.361v657.164H0z"/></defs><clipPath id="aB"><use xlink:href="#aA" overflow="visible"/></clipPath><g clip-path="url(#aB)"><defs><path id="aC" d="M28.215 198.012l14.309-17.052c.415-.494.869-.534 1.364-.119l9.638 8.087c.494.415.534.869.119 1.364l-14.309 17.052c-.415.494-.869.534-1.364.119l-9.638-8.087c-.494-.415-.534-.869-.119-1.364z"/></defs><clipPath id="aD"><use xlink:href="#aC" overflow="visible"/></clipPath><g clip-path="url(#aD)"><defs><path id="aE" d="M42.523 180.96l-13.064 15.57 8.897 7.465 13.687-16.311-8.155-6.843c-.495-.415-.95-.375-1.365.119zm11.744-.741H27.592v27.867h26.674v-27.867z"/></defs><clipPath id="aF"><use xlink:href="#aE" overflow="visible"/></clipPath><g clip-path="url(#aF)"><defs><path id="aG" transform="scale(-1) rotate(40.002 543.5661 -124.7699)" d="M43.957 185.701h2.904v24.293h-2.904z"/></defs><clipPath id="aH"><use xlink:href="#aG" overflow="visible"/></clipPath><g clip-path="url(#aH)"><defs><path id="aI" d="M54.267 189.55l-2.225-1.866-13.748 16.385.357 4.091"/></defs><clipPath id="aJ"><use xlink:href="#aI" overflow="visible"/></clipPath><g clip-path="url(#aJ)"><path fill="#0F1" d="M38.717 208.0932L27.596 198.761l15.5532-18.534 11.1208 9.332z"/></g></g></g></g></g></g></g></g></svg>